<svg xmlns="http://www.w3.org/2000/svg" width="112.65531" height="38.15196" viewBox="0 0 112.65531 38.15196"><title>ewe_logo_hell_gelbElement 1</title><g id="Ebene_2" data-name="Ebene 2"><g id="Ebene_1-2" data-name="Ebene 1"><polygon points="5.794 0 29.309 0 27.902 9.187 14.913 9.187 14.094 14.698 25.034 14.698 23.807 22.906 12.865 22.906 11.985 28.966 24.919 28.966 23.517 38.152 0 38.152 5.794 0" fill="#fff101"/><path d="M33.03874.00287H44.07593l1.67,21.82142h.22271L54.79794.00287H65.2922l.81188,22.256h.14877S73.65161,12.01251,75.23.00036H84.6098C82.36319,19.94665,67.40769,38.14475,67.40769,38.14475H57.69591L56.20155,16.47464h-.14961L47.42441,38.14475H37.258Z" fill="#fff101"/><polygon points="89.134 0 112.655 0 111.252 9.187 98.262 9.187 97.443 14.698 108.384 14.698 107.158 22.906 96.216 22.906 95.338 28.966 108.266 28.966 106.864 38.152 83.34 38.152 89.134 0" fill="#fff101"/></g></g></svg>