<?xml version="1.0" encoding="utf-8"?>
<!-- Generator: Adobe Illustrator 23.1.1, SVG Export Plug-In . SVG Version: 6.00 Build 0)  -->
<svg version="1.1" id="Ebene_1" xmlns="http://www.w3.org/2000/svg" xmlns:xlink="http://www.w3.org/1999/xlink" x="0px" y="0px"
	 viewBox="0 0 829.2 221" style="enable-background:new 0 0 829.2 221;" xml:space="preserve">
<style type="text/css">
	.st0{fill-rule:evenodd;clip-rule:evenodd;fill:#16A64C;}
	.st1{fill-rule:evenodd;clip-rule:evenodd;fill:#004E59;}
</style>
<g id="Ebene_x0020_1">
	<path class="st0" d="M198.5,0c-12.2,0-22.1,9.9-22.1,22.2c0,12.2,9.9,22.1,22.1,22.1c12.2,0,22.1-9.9,22.1-22.1
		C220.6,9.9,210.7,0,198.5,0z"/>
	<path class="st0" d="M149.9,93.1l27.7-36.4c1.4-1.8,1.5-4.4,0.3-6.4l-11.7-18.9c-1-1.6-2.9-2.7-4.8-2.6l-50.7,0.3H82.8
		c-2.2,0-3.1,2.7-1.4,4.1l7.8,6.3c1.1,0.9,2.4,1.5,3.8,1.7l48.3,9.1l-59.7,64.2L2.9,125.7c-2.7,0.4-3.9,3.7-2,5.7l7.7,8.2
		c1.5,1.6,3.7,2.5,5.9,2.5l75.9-1.2c2.8-0.1,5.6-0.9,8-2.3l18.2-11.1l38.4,30.5c1.5,1.2,2.5,2.9,2.8,4.8l7.3,53.8
		c0.3,2.5,2.5,4.4,5.1,4.4h3.9c2.8,0,5.1-2.3,5.1-5.1l0.2-59.7c0-3.1-1-6.1-2.8-8.6l-33.5-45.1L149.9,93.1z"/>
	<path class="st1" d="M343.8,78.8c0-11-8.6-17.8-19.8-17.8H294V97H324C335.2,97,343.8,90.2,343.8,78.8z M341,169.3l-26.2-47.3H294
		v47.3h-28.4V36.1H328c27.8,0,44.9,18.2,44.9,42.9c0,23.4-15,36.1-29.3,39.5l30.1,50.7H341z"/>
	<polygon class="st1" points="394.1,169.3 394.1,36.1 488.3,36.1 488.3,61 422.4,61 422.4,89 486.9,89 486.9,113.9 422.4,113.9 
		422.4,144.3 488.3,144.3 488.3,169.3 	"/>
	<path class="st1" d="M588.5,79c0-11.2-8.6-18-19.8-18h-30v35.7h30C580,96.8,588.5,90,588.5,79z M510.5,169.3V36.1h62.3
		c28.9,0,44.7,19.6,44.7,42.9c0,23.2-16,42.7-44.7,42.7h-34v47.5H510.5z"/>
	<polygon class="st1" points="634.1,169.3 634.1,36.1 662.6,36.1 662.6,144.3 718.9,144.3 718.9,169.3 	"/>
	<polygon class="st1" points="749.9,169.3 749.9,114.7 698.8,36.1 731.1,36.1 764.1,89.4 797,36.1 829.2,36.1 778.2,114.7 
		778.2,169.3 	"/>
</g>
</svg>
