<svg xmlns="http://www.w3.org/2000/svg" viewBox="0 0 1024 768"><defs><style>.cls-1{fill:#353432;}.cls-2{fill:#6ab868;}.cls-3{fill:#58c1d5;}.cls-4{fill:#f9cb61;}.cls-5{fill:#da3b79;}.cls-6{fill:#020300;fill-opacity:0.25;}</style></defs><title>Artboard 2</title><g id="Слой_19" data-name="Слой 19"><path id="path9376" class="cls-1" d="M814,352.09h0v27.66l24-27.66h23.71L834.9,380.88,862,427.17H838.29l-13.83-25.41q-4.25-7.62-7.34-6.49c-2.07.76-3.11,1.88-3.11,3.39v28.51H794.25v-97.1h10.17a9.24,9.24,0,0,1,6.77,2.82,8.93,8.93,0,0,1,2.82,6.49Z"/></g><g id="Слой_18" data-name="Слой 18"><path id="path9374" class="cls-1" d="M773.52,404h14.11q-3.11,11.87-11.85,18.07-8.76,6.5-22,6.49-16.1,0-25.12-10.44-9-10.17-9-29.08,0-18.06,8.75-28.22,9-10.45,25.12-10.45,16.93,0,26.25,10.16a38.7,38.7,0,0,1,7.34,14.4H767.31a16.66,16.66,0,0,0-2.82-4.24q-3.68-3.94-10.45-3.95a13.78,13.78,0,0,0-10.16,3.95q-5.08,5.66-5.08,18.63t5.08,18.35q3.68,4.51,11,4.52a16,16,0,0,0,8.19-2,4,4,0,0,0,1.55-1c.47-.47,1-1,1.55-1.55a13,13,0,0,1,2.26-2.26A7.79,7.79,0,0,1,773.52,404Z"/></g><g id="Слой_17" data-name="Слой 17"><path id="path9371" class="cls-1" d="M697.18,352.09h10.16a9.63,9.63,0,0,1,9.59,9.59v65.49H697.18Zm0-22h10.16a9.63,9.63,0,0,1,9.59,9.59v5.93H697.18Z"/></g><g id="Слой_16" data-name="Слой 16"><path id="path9366" class="cls-1" d="M647.65,427.17V390.76q0-11,3.24-18.49a30.62,30.62,0,0,1,8.9-12,35,35,0,0,1,12.56-6.21,55.63,55.63,0,0,1,14.82-2H690v20H683.5q-8.19,0-12.14,3.95t-4,12.42v38.67Z"/></g><g id="Слой_15" data-name="Слой 15"><path id="path9364" class="cls-1" d="M589.09,339.38V362a23.84,23.84,0,0,1,9-8.75,25.28,25.28,0,0,1,12.42-2.82q13.28,0,21.74,11t8.46,28.51q0,17.5-8.46,28.51a23.77,23.77,0,0,1-11.44,7.76,44.82,44.82,0,0,1-14.25,2.4,47.31,47.31,0,0,1-25.12-7.06q-11.58-7-11.58-27.09V329.79h9.6a9.63,9.63,0,0,1,9.6,9.59Zm32.18,49.68q0-10.15-4.24-15.81a13.46,13.46,0,0,0-11.57-5.92q-7.9,0-12.14,5.64-4.23,5.92-4.23,16.09,0,11.87,3.95,17.22a13.75,13.75,0,0,0,11.86,5.93q7.9,0,12.13-5.93T621.27,389.06Z"/></g><g id="Слой_14" data-name="Слой 14"><path id="path9362" class="cls-1" d="M564.68,427.17a148.25,148.25,0,0,1-20.18-.28q-10.86-.86-10.87-13.84v-83H543.8a8.93,8.93,0,0,1,6.49,2.82,9.24,9.24,0,0,1,2.82,6.77v12.71h11.57v3.95a9.1,9.1,0,0,1-2.82,6.91,9.48,9.48,0,0,1-6.77,2.69h-2v41.77q0,4.8,5.65,4.8h5.92Z"/></g><g id="Слой_13" data-name="Слой 13"><path id="path9360" class="cls-1" d="M483.54,427.17V390.76q0-11,3.25-18.49a30.6,30.6,0,0,1,8.89-12,35,35,0,0,1,12.56-6.21,55.63,55.63,0,0,1,14.82-2h2.82v20h-6.49q-8.19,0-12.14,3.95T503.3,388.5v38.67Z"/></g><g id="Слой_12" data-name="Слой 12"><path id="path9320" class="cls-2" d="M368.61,491.36V443.64l41.32-23.86,41.32,23.86v47.72L409.93,467.5Z"/></g><g id="Слой_11" data-name="Слой 11"><path id="path9326" class="cls-2" d="M162,467.5l41.33,23.86,41.32-23.86V419.79l-41.33-23.86v47.71Z"/></g><g id="Слой_10" data-name="Слой 10"><path id="path9281" class="cls-3" d="M286,491.35l41.32,23.86,41.33-23.85V443.65l-41.32-23.86V467.5Z"/></g><g id="Слой_9" data-name="Слой 9"><path id="path9314" class="cls-3" d="M327.29,276.63v47.72l41.32,23.86,41.32-23.86V276.63l-41.32,23.86Z"/></g><g id="Слой_8" data-name="Слой 8"><path id="path9294" class="cls-4" d="M327.29,419.78,286,395.92V348.21l41.32-23.85,41.32,23.86-41.32,23.85Z"/></g><g id="Слой_7" data-name="Слой 7"><path id="path9302" class="cls-4" d="M286,395.92l-41.33,23.86-41.32-23.85V348.22l41.33-23.86v47.71Z"/></g><g id="Слой_6" data-name="Слой 6"><path id="path9268" class="cls-5" d="M244.65,467.5V419.78L286,395.92l41.32,23.86V467.5L286,443.64Z"/></g><g id="Слой_5" data-name="Слой 5"><path id="path9288" class="cls-5" d="M409.94,419.78l-41.33,23.86-41.32-23.86V372.07l41.33-23.86v47.71Z"/></g><g id="Слой_4" data-name="Слой 4"><path id="path9308" class="cls-5" d="M286,348.21l41.33-23.86V276.64L286,252.79l-41.33,23.86L286,300.5Z"/></g><g id="Слой_3" data-name="Слой 3"><path id="path9272" class="cls-6" d="M327.29,467.5,286,443.64V395.92l41.32,23.86Z"/><path id="path9284" class="cls-6" d="M327.29,419.79V467.5l41.33,23.86V443.65Z"/><path id="path9290" class="cls-6" d="M368.62,348.21v47.71l-41.32,23.86V372.07Z"/><path id="path9297" class="cls-6" d="M368.61,348.22l-41.32,23.85L286,348.21l41.32-23.85Z"/><path id="path9304" class="cls-6" d="M244.65,324.36v47.71l-41.33,23.86V348.22Z"/><path id="path9310" class="cls-6" d="M244.64,276.65,286,300.5l41.32-23.86L286,252.79Z"/><path id="path9316" class="cls-6" d="M409.93,276.63l-41.32,23.86v47.72l41.32-23.86Z"/><path id="path9322" class="cls-6" d="M451.25,491.36,409.93,467.5V419.78l41.32,23.86Z"/><path id="path9328" class="cls-6" d="M203.32,395.93v47.71l41.33,23.86V419.79Z"/></g></svg>